<svg xmlns="http://www.w3.org/2000/svg" width="206.212" height="89.889" viewBox="0 0 206.212 89.889">
  <path id="Main_Line" data-name="Main Line" d="M0,73.356,17.275,47.522a4.5,4.5,0,0,1,7.552.1L39.938,71.534a4.5,4.5,0,0,0,6.362,1.3l5.837-4.019A4.5,4.5,0,0,1,58.6,70.287L68.509,87.55a4.5,4.5,0,0,0,8.2-.867L90.194,44.62a4.5,4.5,0,0,1,8.428-.4l5.026,11.7a4.5,4.5,0,0,0,6.581,2.008l12.729-8.212a4.5,4.5,0,0,1,5.966.979l14.482,18.186a4.5,4.5,0,0,0,7.818-1.446L170.47,6.651a6.757,6.757,0,0,1,12.845-.117l6.512,19.336a4.5,4.5,0,0,0,7.609,1.584l5.976-6.606" transform="translate(1.387 -0.934)" fill="none" stroke="#ebeafa" stroke-linecap="round" stroke-linejoin="round" stroke-miterlimit="10" stroke-width="2"/>
</svg>
